<?xml version="1.0" encoding="UTF-8" standalone="no"?>
<!-- Created by Flowgorithm 2.22.1 (http://flowgorithm.org) -->

<svg xmlns:svg="http://www.w3.org/2000/svg" xmlns="http://www.w3.org/2000/svg" version="1.1" width="1612" height="4495">
	<rect x="0" y="0" width="1612" height="4495" fill="#FFFFFF"/>
	<g>
		<polyline fill="none" stroke="#404040" stroke-width="8" stroke-dasharray="none" points="403,248 403,323"/>
		<polygon fill="#404040" stroke="none" points="403,341 420,310 385,310"/>
		<polyline fill="none" stroke="#404040" stroke-width="8" stroke-dasharray="none" points="403,4154 403,4229"/>
		<polygon fill="#404040" stroke="none" points="403,4247 420,4216 385,4216"/>
		<g>
			<path fill="#F0D0FF" stroke="#9070A0" stroke-width="4" stroke-dasharray="none" d="M 279,124 A 62,62 0 0,0 279,248 L 527,248 A 62,62 0 0,0 527,124 Z"/>
			<text x="403" y="142" fill="#000000" font-family="Arial" font-size="32pt" text-anchor="middle" direction="ltr">
				<tspan x="403" dy="62" unicode-bidi="embed">Main</tspan>
			</text>
		</g>
		<g>
			<path fill="#F0D0FF" stroke="#9070A0" stroke-width="4" stroke-dasharray="none" d="M 279,4247 A 62,62 0 0,0 279,4371 L 527,4371 A 62,62 0 0,0 527,4247 Z"/>
			<text x="403" y="4265" fill="#000000" font-family="Arial" font-size="32pt" text-anchor="middle" direction="ltr">
				<tspan x="403" dy="62" unicode-bidi="embed">End</tspan>
			</text>
		</g>
		<g>
			<polyline fill="none" stroke="#404040" stroke-width="8" stroke-dasharray="none" points="403,496 403,571"/>
			<polygon fill="#404040" stroke="none" points="403,589 420,558 385,558"/>
			<polyline fill="none" stroke="#404040" stroke-width="8" stroke-dasharray="none" points="403,744 403,819"/>
			<polygon fill="#404040" stroke="none" points="403,837 420,806 385,806"/>
			<polyline fill="none" stroke="#404040" stroke-width="8" stroke-dasharray="none" points="403,992 403,1067"/>
			<polygon fill="#404040" stroke="none" points="403,1085 420,1054 385,1054"/>
			<polyline fill="none" stroke="#404040" stroke-width="8" stroke-dasharray="none" points="403,1240 403,1315"/>
			<polygon fill="#404040" stroke="none" points="403,1333 420,1302 385,1302"/>
			<polyline fill="none" stroke="#404040" stroke-width="8" stroke-dasharray="none" points="403,1488 403,1563"/>
			<polygon fill="#404040" stroke="none" points="403,1581 420,1550 385,1550"/>
			<polyline fill="none" stroke="#404040" stroke-width="8" stroke-dasharray="none" points="403,1705 403,1780"/>
			<polygon fill="#404040" stroke="none" points="403,1798 420,1767 385,1767"/>
			<polyline fill="none" stroke="#404040" stroke-width="8" stroke-dasharray="none" points="403,1922 403,1997"/>
			<polygon fill="#404040" stroke="none" points="403,2015 420,1984 385,1984"/>
			<polyline fill="none" stroke="#404040" stroke-width="8" stroke-dasharray="none" points="403,2139 403,2214"/>
			<polygon fill="#404040" stroke="none" points="403,2232 420,2201 385,2201"/>
			<polyline fill="none" stroke="#404040" stroke-width="8" stroke-dasharray="none" points="403,2356 403,2431"/>
			<polygon fill="#404040" stroke="none" points="403,2449 420,2418 385,2418"/>
			<polyline fill="none" stroke="#404040" stroke-width="8" stroke-dasharray="none" points="403,2759 403,4012"/>
			<polygon fill="#404040" stroke="none" points="403,4030 420,3999 385,3999"/>
			<g>
				<path fill="#FFFFD0" stroke="#A0A070" stroke-width="4" stroke-dasharray="none" d="M 217,341 L 217,496 L 589,496 L 589,341 Z"/>
				<polyline fill="none" stroke="#A0A070" stroke-width="4" stroke-dasharray="none" points="217,372 589,372"/>
				<polyline fill="none" stroke="#A0A070" stroke-width="4" stroke-dasharray="none" points="248,341 248,496"/>
				<text x="418" y="390" fill="#000000" font-family="Arial" font-size="32pt" text-anchor="middle" direction="ltr">
					<tspan x="418" dy="62" unicode-bidi="embed">Integer L</tspan>
				</text>
			</g>
			<g>
				<path fill="#FFFFD0" stroke="#A0A070" stroke-width="4" stroke-dasharray="none" d="M 217,589 L 217,744 L 589,744 L 589,589 Z"/>
				<polyline fill="none" stroke="#A0A070" stroke-width="4" stroke-dasharray="none" points="217,620 589,620"/>
				<polyline fill="none" stroke="#A0A070" stroke-width="4" stroke-dasharray="none" points="248,589 248,744"/>
				<text x="418" y="638" fill="#000000" font-family="Arial" font-size="32pt" text-anchor="middle" direction="ltr">
					<tspan x="418" dy="62" unicode-bidi="embed">Integer N</tspan>
				</text>
			</g>
			<g>
				<path fill="#FFFFD0" stroke="#A0A070" stroke-width="4" stroke-dasharray="none" d="M 217,837 L 217,992 L 589,992 L 589,837 Z"/>
				<polyline fill="none" stroke="#A0A070" stroke-width="4" stroke-dasharray="none" points="217,868 589,868"/>
				<polyline fill="none" stroke="#A0A070" stroke-width="4" stroke-dasharray="none" points="248,837 248,992"/>
				<text x="418" y="886" fill="#000000" font-family="Arial" font-size="32pt" text-anchor="middle" direction="ltr">
					<tspan x="418" dy="62" unicode-bidi="embed">Integer h</tspan>
				</text>
			</g>
			<g>
				<path fill="#FFFFD0" stroke="#A0A070" stroke-width="4" stroke-dasharray="none" d="M 217,1085 L 217,1240 L 589,1240 L 589,1085 Z"/>
				<polyline fill="none" stroke="#A0A070" stroke-width="4" stroke-dasharray="none" points="217,1116 589,1116"/>
				<polyline fill="none" stroke="#A0A070" stroke-width="4" stroke-dasharray="none" points="248,1085 248,1240"/>
				<text x="418" y="1134" fill="#000000" font-family="Arial" font-size="32pt" text-anchor="middle" direction="ltr">
					<tspan x="418" dy="62" unicode-bidi="embed">Integer i</tspan>
				</text>
			</g>
			<g>
				<path fill="#FFFFD0" stroke="#A0A070" stroke-width="4" stroke-dasharray="none" d="M 217,1333 L 217,1488 L 589,1488 L 589,1333 Z"/>
				<polyline fill="none" stroke="#A0A070" stroke-width="4" stroke-dasharray="none" points="217,1364 589,1364"/>
				<polyline fill="none" stroke="#A0A070" stroke-width="4" stroke-dasharray="none" points="248,1333 248,1488"/>
				<text x="418" y="1382" fill="#000000" font-family="Arial" font-size="32pt" text-anchor="middle" direction="ltr">
					<tspan x="418" dy="62" unicode-bidi="embed">Integer ID</tspan>
				</text>
			</g>
			<g>
				<path fill="#D0E0FF" stroke="#7080A0" stroke-width="4" stroke-dasharray="none" d="M 217,1581 L 279,1705 L 527,1705 L 589,1581 Z"/>
				<text x="403" y="1599" fill="#000000" font-family="Arial" font-size="32pt" text-anchor="middle" direction="ltr">
					<tspan x="403" dy="62" unicode-bidi="embed">N</tspan>
				</text>
			</g>
			<g>
				<path fill="#D0E0FF" stroke="#7080A0" stroke-width="4" stroke-dasharray="none" d="M 217,1798 L 279,1922 L 527,1922 L 589,1798 Z"/>
				<text x="403" y="1816" fill="#000000" font-family="Arial" font-size="32pt" text-anchor="middle" direction="ltr">
					<tspan x="403" dy="62" unicode-bidi="embed">L</tspan>
				</text>
			</g>
			<g>
				<path fill="#FFFFD0" stroke="#A0A070" stroke-width="4" stroke-dasharray="none" d="M 217,2015 L 217,2139 L 589,2139 L 589,2015 Z"/>
				<text x="403" y="2033" fill="#000000" font-family="Arial" font-size="32pt" text-anchor="middle" direction="ltr">
					<tspan x="403" dy="62" unicode-bidi="embed">ID = -1</tspan>
				</text>
			</g>
			<g>
				<path fill="#FFFFD0" stroke="#A0A070" stroke-width="4" stroke-dasharray="none" d="M 217,2232 L 217,2356 L 589,2356 L 589,2232 Z"/>
				<text x="403" y="2250" fill="#000000" font-family="Arial" font-size="32pt" text-anchor="middle" direction="ltr">
					<tspan x="403" dy="62" unicode-bidi="embed">i = 0</tspan>
				</text>
			</g>
			<g>
				<polyline fill="none" stroke="#404040" stroke-width="8" stroke-dasharray="none" points="682,2604 961,2604 961,2834"/>
				<polygon fill="#404040" stroke="none" points="961,2852 978,2821 943,2821"/>
				<polyline fill="none" stroke="#404040" stroke-width="8" stroke-dasharray="none" points="961,3844 961,3937 465,3937 465,2776"/>
				<polygon fill="#404040" stroke="none" points="465,2759 447,2789 482,2789"/>
				<g>
					<polyline fill="none" stroke="#404040" stroke-width="8" stroke-dasharray="none" points="961,2976 961,3051"/>
					<polygon fill="#404040" stroke="none" points="961,3069 978,3038 943,3038"/>
					<polyline fill="none" stroke="#404040" stroke-width="8" stroke-dasharray="none" points="961,3193 961,3268"/>
					<polygon fill="#404040" stroke="none" points="961,3286 978,3255 943,3255"/>
					<g>
						<path fill="#FFFFD0" stroke="#A0A070" stroke-width="4" stroke-dasharray="none" d="M 775,2852 L 775,2976 L 1147,2976 L 1147,2852 Z"/>
						<text x="961" y="2870" fill="#000000" font-family="Arial" font-size="32pt" text-anchor="middle" direction="ltr">
							<tspan x="961" dy="62" unicode-bidi="embed">i = i + 1</tspan>
						</text>
					</g>
					<g>
						<path fill="#D0E0FF" stroke="#7080A0" stroke-width="4" stroke-dasharray="none" d="M 775,3069 L 837,3193 L 1085,3193 L 1147,3069 Z"/>
						<text x="961" y="3087" fill="#000000" font-family="Arial" font-size="32pt" text-anchor="middle" direction="ltr">
							<tspan x="961" dy="62" unicode-bidi="embed">h</tspan>
						</text>
					</g>
					<g>
						<polyline fill="none" stroke="#404040" stroke-width="8" stroke-dasharray="none" points="1116,3379 1302,3379 1302,3547"/>
						<polygon fill="#404040" stroke="none" points="1302,3565 1319,3534 1284,3534"/>
						<polyline fill="none" stroke="#404040" stroke-width="8" stroke-dasharray="none" points="1302,3689 1302,3813 1009,3813"/>
						<polygon fill="#404040" stroke="none" points="992,3813 1022,3830 1022,3795"/>
						<polyline fill="none" stroke="#404040" stroke-width="8" stroke-dasharray="none" points="806,3379 589,3379 589,3813 912,3813"/>
						<polygon fill="#404040" stroke="none" points="930,3813 899,3795 899,3830"/>
						<g>
							<path fill="#FFD0D0" stroke="#A07070" stroke-width="4" stroke-dasharray="none" d="M 961,3286 L 775,3379 L 961,3472 L 1147,3379 Z"/>
							<text x="961" y="3335" fill="#000000" font-family="Arial" font-size="32pt" text-anchor="middle" direction="ltr">
								<tspan x="961" dy="62" unicode-bidi="embed">h &lt;= L</tspan>
							</text>
						</g>
						<g>
							<path fill="#FFFFD0" stroke="#A0A070" stroke-width="4" stroke-dasharray="none" d="M 1116,3565 L 1116,3689 L 1488,3689 L 1488,3565 Z"/>
							<text x="1302" y="3583" fill="#000000" font-family="Arial" font-size="32pt" text-anchor="middle" direction="ltr">
								<tspan x="1302" dy="62" unicode-bidi="embed">ID = i</tspan>
							</text>
						</g>
						<g>
						</g>
						<ellipse cx="961" cy="3813" rx="31" ry="31" fill="#FFD0D0" stroke="#A07070" stroke-width="4"/>
						<text x="1240" y="3273" fill="#000000" font-family="Arial" font-size="32pt" text-anchor="middle" direction="ltr">
							<tspan x="1240" dy="62" unicode-bidi="embed">True</tspan>
						</text>
						<text x="666" y="3273" fill="#000000" font-family="Arial" font-size="32pt" text-anchor="middle" direction="ltr">
							<tspan x="666" dy="62" unicode-bidi="embed">False</tspan>
						</text>
					</g>
				</g>
				<g>
					<path fill="#FFE0A0" stroke="#A08040" stroke-width="4" stroke-dasharray="none" d="M 403,2449 L 124,2604 L 403,2759 L 682,2604 Z"/>
					<text x="403" y="2560" fill="#000000" font-family="Arial" font-size="32pt" text-anchor="middle" direction="ltr">
						<tspan x="403" dy="62" unicode-bidi="embed">i &lt; N &amp;&amp; ID &lt; 0</tspan>
					</text>
				</g>
				<text x="775" y="2498" fill="#000000" font-family="Arial" font-size="32pt" text-anchor="middle" direction="ltr">
					<tspan x="775" dy="62" unicode-bidi="embed">True</tspan>
				</text>
				<text x="294" y="2777" fill="#000000" font-family="Arial" font-size="32pt" text-anchor="middle" direction="ltr">
					<tspan x="294" dy="62" unicode-bidi="embed">False</tspan>
				</text>
			</g>
			<g>
				<path fill="#D0FFD0" stroke="#70A070" stroke-width="4" stroke-dasharray="none" d="M 279,4030 L 217,4154 L 589,4154 L 527,4030 Z"/>
				<text x="403" y="4048" fill="#000000" font-family="Arial" font-size="32pt" text-anchor="middle" direction="ltr">
					<tspan x="403" dy="62" unicode-bidi="embed">ID</tspan>
				</text>
			</g>
		</g>
	</g>
</svg>
